<svg width="700" height="201" viewBox="0 0 700 201" fill="none" xmlns="http://www.w3.org/2000/svg">
<g clip-path="url(#clip0_331_61)">
<path d="M89.7134 103.453L68.9822 151H33.2659L0.479004 58.4982H42.7301L56.8139 108.524L77.3198 60.3009H102.333L122.501 108.524L136.697 58.4982H178.948L146.387 151H110.783L89.7134 103.453ZM237.617 151V137.142C236.866 138.569 235.176 140.634 232.547 143.338C229.918 145.967 226.425 148.371 222.069 150.549C217.787 152.652 212.755 153.704 206.971 153.704C197.807 153.704 189.883 151.451 183.198 146.944C176.513 142.437 171.33 136.466 167.649 129.029C164.044 121.593 162.241 113.519 162.241 104.805C162.241 96.0924 164.044 88.0177 167.649 80.5815C171.33 73.1453 176.513 67.1738 183.198 62.667C189.883 58.0851 197.807 55.7942 206.971 55.7942C212.454 55.7942 217.224 56.6204 221.28 58.2729C225.411 59.9254 228.792 61.8783 231.42 64.1317C234.125 66.3851 236.04 68.5258 237.167 70.5539V58.4982H276.826V151H237.617ZM201.338 104.805C201.338 108.11 202.126 111.152 203.704 113.932C205.281 116.636 207.422 118.776 210.126 120.354C212.83 121.931 215.91 122.72 219.365 122.72C222.82 122.72 225.862 121.931 228.491 120.354C231.195 118.776 233.298 116.636 234.801 113.932C236.378 111.152 237.167 108.11 237.167 104.805C237.167 101.5 236.378 98.496 234.801 95.7919C233.298 93.0127 231.195 90.8344 228.491 89.2571C225.862 87.6046 222.82 86.7783 219.365 86.7783C215.91 86.7783 212.83 87.6046 210.126 89.2571C207.422 90.8344 205.281 93.0127 203.704 95.7919C202.126 98.496 201.338 101.5 201.338 104.805ZM317.872 175.5H278.437V58.4982H318.21V70.5539C319.411 68.5258 321.44 66.3851 324.294 64.1317C327.223 61.8032 330.904 59.8503 335.335 58.2729C339.767 56.6204 344.725 55.7942 350.208 55.7942C359.372 55.7942 367.108 58.0851 373.418 62.667C379.802 67.1738 384.647 73.1453 387.952 80.5815C391.332 88.0177 393.022 96.0924 393.022 104.805C393.022 113.519 391.22 121.593 387.614 129.029C384.009 136.466 378.901 142.437 372.291 146.944C365.681 151.451 357.794 153.704 348.63 153.704C342.396 153.704 337.101 152.652 332.744 150.549C328.463 148.371 325.083 145.967 322.604 143.338C320.2 140.634 318.623 138.569 317.872 137.142V175.5ZM354.039 104.805C354.039 101.5 353.25 98.496 351.673 95.7919C350.17 93.0127 348.067 90.8344 345.363 89.2571C342.659 87.6046 339.617 86.7783 336.237 86.7783C332.707 86.7783 329.589 87.6046 326.885 89.2571C324.181 90.8344 322.04 93.0127 320.463 95.7919C318.961 98.496 318.21 101.5 318.21 104.805C318.21 108.11 318.961 111.152 320.463 113.932C322.04 116.636 324.181 118.776 326.885 120.354C329.589 121.931 332.707 122.72 336.237 122.72C339.617 122.72 342.659 121.931 345.363 120.354C348.067 118.776 350.17 116.636 351.673 113.932C353.25 111.152 354.039 108.11 354.039 104.805ZM391.704 151V58.4982H431.476V151H391.704ZM412.097 44.3018C406.013 44.3018 400.83 42.1611 396.549 37.8797C392.342 33.5982 390.239 28.4905 390.239 22.5566C390.239 16.6226 392.342 11.4774 396.549 7.12078C400.83 2.76421 406.013 0.585938 412.097 0.585938C416.078 0.585938 419.721 1.59996 423.026 3.62801C426.331 5.58096 428.997 8.20992 431.026 11.5149C433.054 14.8199 434.068 18.5005 434.068 22.5566C434.068 28.4905 431.889 33.5982 427.533 37.8797C423.251 42.1611 418.106 44.3018 412.097 44.3018Z" fill="#25D366"/>
<path d="M458.836 153.704C454.254 153.704 450.31 152.089 447.005 148.859C443.775 145.554 442.16 141.573 442.16 136.916C442.16 132.259 443.775 128.278 447.005 124.973C450.31 121.668 454.254 120.016 458.836 120.016C463.568 120.016 467.549 121.668 470.779 124.973C474.084 128.278 475.736 132.259 475.736 136.916C475.736 141.573 474.084 145.554 470.779 148.859C467.549 152.089 463.568 153.704 458.836 153.704ZM536.266 200.575C530.107 200.575 523.76 200.049 517.225 198.997C510.69 198.021 504.456 196.181 498.522 193.476C492.663 190.772 487.63 186.867 483.424 181.759L506.296 157.535C508.174 159.638 510.39 161.591 512.943 163.394C515.497 165.272 518.539 166.774 522.07 167.9C525.6 169.102 529.731 169.703 534.463 169.703C538.745 169.703 542.576 169.065 545.956 167.788C549.336 166.511 551.965 164.483 553.843 161.704C555.796 159 556.772 155.507 556.772 151.225V149.197H595.981V153.479C595.981 163.844 593.315 172.52 587.982 179.505C582.724 186.491 575.588 191.749 566.574 195.279C557.561 198.81 547.458 200.575 536.266 200.575ZM556.772 151V137.142C556.021 138.569 554.331 140.634 551.702 143.338C549.073 145.967 545.58 148.371 541.224 150.549C536.942 152.652 531.91 153.704 526.126 153.704C516.962 153.704 509.038 151.451 502.353 146.944C495.667 142.437 490.485 136.466 486.804 129.029C483.199 121.593 481.396 113.519 481.396 104.805C481.396 96.0921 483.199 88.0174 486.804 80.5812C490.485 73.145 495.667 67.1735 502.353 62.6667C509.038 58.0848 516.962 55.7939 526.126 55.7939C531.609 55.7939 536.379 56.6201 540.435 58.2726C544.566 59.9251 547.946 61.878 550.575 64.1314C553.279 66.3848 555.195 68.5255 556.321 70.5536V58.4979H595.981V151H556.772ZM520.492 104.805C520.492 108.11 521.281 111.152 522.858 113.932C524.436 116.636 526.577 118.776 529.281 120.354C531.985 121.931 535.064 122.72 538.52 122.72C541.975 122.72 545.017 121.931 547.646 120.354C550.35 118.776 552.453 116.636 553.955 113.932C555.533 111.152 556.321 108.11 556.321 104.805C556.321 101.5 555.533 98.4957 553.955 95.7916C552.453 93.0124 550.35 90.8341 547.646 89.2568C545.017 87.6043 541.975 86.778 538.52 86.778C535.064 86.778 531.985 87.6043 529.281 89.2568C526.577 90.8341 524.436 93.0124 522.858 95.7916C521.281 98.4957 520.492 101.5 520.492 104.805ZM646.829 153.704C636.463 153.704 627.262 151.638 619.225 147.507C611.187 143.376 604.878 137.667 600.296 130.381C595.714 123.02 593.423 114.57 593.423 105.031C593.423 95.4912 595.714 87.0409 600.296 79.6798C604.878 72.2436 611.187 66.4224 619.225 62.216C627.262 57.9346 636.463 55.7939 646.829 55.7939C657.119 55.7939 666.208 57.9346 674.095 62.216C682.057 66.4224 688.254 72.2436 692.685 79.6798C697.192 87.0409 699.445 95.4912 699.445 105.031C699.445 114.57 697.192 123.02 692.685 130.381C688.254 137.667 682.057 143.376 674.095 147.507C666.208 151.638 657.119 153.704 646.829 153.704ZM646.829 121.143C649.908 121.143 652.575 120.504 654.828 119.227C657.082 117.875 658.809 115.96 660.011 113.481C661.213 111.002 661.814 108.11 661.814 104.805C661.814 101.576 661.213 98.721 660.011 96.2423C658.809 93.7636 657.082 91.8482 654.828 90.4961C652.575 89.069 649.908 88.3554 646.829 88.3554C643.674 88.3554 640.97 89.069 638.716 90.4961C636.463 91.8482 634.698 93.7636 633.421 96.2423C632.144 98.721 631.506 101.576 631.506 104.805C631.506 108.11 632.144 111.002 633.421 113.481C634.698 115.96 636.463 117.875 638.716 119.227C640.97 120.504 643.674 121.143 646.829 121.143Z" fill="white"/>
</g>
<defs>
<clipPath id="clip0_331_61">
<rect width="700" height="201" fill="white"/>
</clipPath>
</defs>
</svg>
