<svg width="1482" height="677" viewBox="0 0 1482 677" fill="none" xmlns="http://www.w3.org/2000/svg">
<rect width="1481.52" height="677" rx="58.2227" fill="url(#paint0_linear_331_57)"/>
<g clip-path="url(#clip0_331_57)">
<path d="M480.713 341.453L459.982 389H424.266L391.479 296.498H433.73L447.814 346.524L468.32 298.301H493.333L513.501 346.524L527.697 296.498H569.948L537.387 389H501.783L480.713 341.453ZM628.617 389V375.142C627.866 376.569 626.176 378.634 623.547 381.338C620.918 383.967 617.425 386.371 613.069 388.549C608.787 390.652 603.755 391.704 597.971 391.704C588.807 391.704 580.883 389.451 574.198 384.944C567.513 380.437 562.33 374.466 558.649 367.029C555.044 359.593 553.241 351.519 553.241 342.805C553.241 334.092 555.044 326.018 558.649 318.581C562.33 311.145 567.513 305.174 574.198 300.667C580.883 296.085 588.807 293.794 597.971 293.794C603.454 293.794 608.224 294.62 612.28 296.273C616.411 297.925 619.792 299.878 622.42 302.132C625.125 304.385 627.04 306.526 628.167 308.554V296.498H667.826V389H628.617ZM592.338 342.805C592.338 346.11 593.126 349.152 594.704 351.932C596.281 354.636 598.422 356.776 601.126 358.354C603.83 359.931 606.91 360.72 610.365 360.72C613.82 360.72 616.862 359.931 619.491 358.354C622.195 356.776 624.298 354.636 625.801 351.932C627.378 349.152 628.167 346.11 628.167 342.805C628.167 339.5 627.378 336.496 625.801 333.792C624.298 331.013 622.195 328.834 619.491 327.257C616.862 325.605 613.82 324.778 610.365 324.778C606.91 324.778 603.83 325.605 601.126 327.257C598.422 328.834 596.281 331.013 594.704 333.792C593.126 336.496 592.338 339.5 592.338 342.805ZM708.872 413.5H669.437V296.498H709.21V308.554C710.411 306.526 712.44 304.385 715.294 302.132C718.223 299.803 721.904 297.85 726.335 296.273C730.767 294.62 735.725 293.794 741.208 293.794C750.372 293.794 758.108 296.085 764.418 300.667C770.802 305.174 775.647 311.145 778.952 318.581C782.332 326.018 784.022 334.092 784.022 342.805C784.022 351.519 782.22 359.593 778.614 367.029C775.009 374.466 769.901 380.437 763.291 384.944C756.681 389.451 748.794 391.704 739.63 391.704C733.396 391.704 728.101 390.652 723.744 388.549C719.463 386.371 716.083 383.967 713.604 381.338C711.2 378.634 709.623 376.569 708.872 375.142V413.5ZM745.039 342.805C745.039 339.5 744.25 336.496 742.673 333.792C741.17 331.013 739.067 328.834 736.363 327.257C733.659 325.605 730.617 324.778 727.237 324.778C723.707 324.778 720.589 325.605 717.885 327.257C715.181 328.834 713.04 331.013 711.463 333.792C709.961 336.496 709.21 339.5 709.21 342.805C709.21 346.11 709.961 349.152 711.463 351.932C713.04 354.636 715.181 356.776 717.885 358.354C720.589 359.931 723.707 360.72 727.237 360.72C730.617 360.72 733.659 359.931 736.363 358.354C739.067 356.776 741.17 354.636 742.673 351.932C744.25 349.152 745.039 346.11 745.039 342.805ZM782.704 389V296.498H822.476V389H782.704ZM803.097 282.302C797.013 282.302 791.83 280.161 787.549 275.88C783.342 271.598 781.239 266.49 781.239 260.557C781.239 254.623 783.342 249.477 787.549 245.121C791.83 240.764 797.013 238.586 803.097 238.586C807.078 238.586 810.721 239.6 814.026 241.628C817.331 243.581 819.997 246.21 822.026 249.515C824.054 252.82 825.068 256.5 825.068 260.557C825.068 266.49 822.889 271.598 818.533 275.88C814.251 280.161 809.106 282.302 803.097 282.302Z" fill="#25D366"/>
<path d="M849.836 391.704C845.254 391.704 841.31 390.089 838.005 386.859C834.775 383.554 833.16 379.573 833.16 374.916C833.16 370.259 834.775 366.278 838.005 362.973C841.31 359.668 845.254 358.016 849.836 358.016C854.568 358.016 858.549 359.668 861.779 362.973C865.084 366.278 866.736 370.259 866.736 374.916C866.736 379.573 865.084 383.554 861.779 386.859C858.549 390.089 854.568 391.704 849.836 391.704ZM927.266 438.575C921.107 438.575 914.76 438.049 908.225 436.997C901.69 436.021 895.456 434.181 889.522 431.476C883.663 428.772 878.63 424.867 874.424 419.759L897.296 395.535C899.174 397.638 901.39 399.591 903.943 401.394C906.497 403.272 909.539 404.774 913.07 405.9C916.6 407.102 920.731 407.703 925.463 407.703C929.745 407.703 933.576 407.065 936.956 405.788C940.336 404.511 942.965 402.483 944.843 399.704C946.796 397 947.772 393.507 947.772 389.225V387.197H986.981V391.479C986.981 401.844 984.315 410.52 978.982 417.505C973.724 424.491 966.588 429.749 957.574 433.279C948.561 436.81 938.458 438.575 927.266 438.575ZM947.772 389V375.142C947.021 376.569 945.331 378.634 942.702 381.338C940.073 383.967 936.58 386.371 932.224 388.549C927.942 390.652 922.91 391.704 917.126 391.704C907.962 391.704 900.038 389.451 893.353 384.944C886.667 380.437 881.485 374.466 877.804 367.029C874.199 359.593 872.396 351.519 872.396 342.805C872.396 334.092 874.199 326.017 877.804 318.581C881.485 311.145 886.667 305.174 893.353 300.667C900.038 296.085 907.962 293.794 917.126 293.794C922.609 293.794 927.379 294.62 931.435 296.273C935.566 297.925 938.946 299.878 941.575 302.131C944.279 304.385 946.195 306.526 947.321 308.554V296.498H986.981V389H947.772ZM911.492 342.805C911.492 346.11 912.281 349.152 913.858 351.932C915.436 354.636 917.577 356.776 920.281 358.354C922.985 359.931 926.064 360.72 929.52 360.72C932.975 360.72 936.017 359.931 938.646 358.354C941.35 356.776 943.453 354.636 944.955 351.932C946.533 349.152 947.321 346.11 947.321 342.805C947.321 339.5 946.533 336.496 944.955 333.792C943.453 331.012 941.35 328.834 938.646 327.257C936.017 325.604 932.975 324.778 929.52 324.778C926.064 324.778 922.985 325.604 920.281 327.257C917.577 328.834 915.436 331.012 913.858 333.792C912.281 336.496 911.492 339.5 911.492 342.805ZM1037.83 391.704C1027.46 391.704 1018.26 389.638 1010.23 385.507C1002.19 381.376 995.878 375.667 991.296 368.381C986.714 361.02 984.423 352.57 984.423 343.031C984.423 333.491 986.714 325.041 991.296 317.68C995.878 310.244 1002.19 304.422 1010.23 300.216C1018.26 295.935 1027.46 293.794 1037.83 293.794C1048.12 293.794 1057.21 295.935 1065.1 300.216C1073.06 304.422 1079.25 310.244 1083.69 317.68C1088.19 325.041 1090.45 333.491 1090.45 343.031C1090.45 352.57 1088.19 361.02 1083.69 368.381C1079.25 375.667 1073.06 381.376 1065.1 385.507C1057.21 389.638 1048.12 391.704 1037.83 391.704ZM1037.83 359.143C1040.91 359.143 1043.58 358.504 1045.83 357.227C1048.08 355.875 1049.81 353.96 1051.01 351.481C1052.21 349.002 1052.81 346.11 1052.81 342.805C1052.81 339.576 1052.21 336.721 1051.01 334.242C1049.81 331.764 1048.08 329.848 1045.83 328.496C1043.58 327.069 1040.91 326.355 1037.83 326.355C1034.67 326.355 1031.97 327.069 1029.72 328.496C1027.46 329.848 1025.7 331.764 1024.42 334.242C1023.14 336.721 1022.51 339.576 1022.51 342.805C1022.51 346.11 1023.14 349.002 1024.42 351.481C1025.7 353.96 1027.46 355.875 1029.72 357.227C1031.97 358.504 1034.67 359.143 1037.83 359.143Z" fill="white"/>
</g>
<defs>
<linearGradient id="paint0_linear_331_57" x1="1436.02" y1="5.12179e-05" x2="23.4639" y2="626.637" gradientUnits="userSpaceOnUse">
<stop stop-color="#117D39"/>
<stop offset="0.432213"/>
<stop offset="1" stop-color="#1C4448"/>
</linearGradient>
<clipPath id="clip0_331_57">
<rect width="700" height="201" fill="white" transform="translate(391 238)"/>
</clipPath>
</defs>
</svg>
